<svg width="398" height="716" viewBox="0 0 398 716" fill="none" xmlns="http://www.w3.org/2000/svg">
<g opacity="0.1">
<mask id="mask0_903:42" style="mask-type:alpha" maskUnits="userSpaceOnUse" x="0" y="0" width="398" height="215">
<mask id="mask1_903:42" style="mask-type:alpha" maskUnits="userSpaceOnUse" x="0" y="0" width="398" height="716">
<rect x="0.308594" y="0.270508" width="396.934" height="715.459" rx="26" fill="url(#paint0_linear_903:42)"/>
</mask>
<g mask="url(#mask1_903:42)">
<path d="M722.965 164.453C722.965 164.453 682.425 208.437 608.194 213.279C533.564 218.115 424.28 142.377 290.584 151.092C137.333 161.101 93.1186 236.888 13.4183 208.195C-81.7426 173.691 -53.9767 -104.65 -53.9767 -104.65L740.848 -93.3308L722.965 164.453Z" fill="url(#paint1_linear_903:42)"/>
</g>
</mask>
<g mask="url(#mask0_903:42)">
<path d="M276.403 182.117C228.411 191.617 181.574 197.772 135.045 200.229C42.9857 204.945 -47.5975 196.121 -149.794 171.933C-243.25 149.91 -350.371 113.969 -486.488 58.8306L-485.936 57.6823C-349.819 112.821 -242.997 148.562 -149.242 170.784C-47.345 194.772 43.0377 203.895 135.047 198.929C330.411 188.57 531.949 113.608 794.089 -4.26071L794.586 -3.06039C594.668 86.6466 430.13 151.687 276.403 182.117Z" fill="white"/>
<path d="M247.182 176.213C212.938 182.991 179.596 187.773 146.458 190.956C55.6411 199.322 -34.4004 194.548 -136.907 175.356C-231.521 157.979 -341.451 127.529 -482.429 79.3273L-482.127 78.2285C-341.198 126.18 -231.518 156.68 -136.855 174.307C-34.3979 193.248 55.6437 198.023 146.211 189.706C331.894 172.432 522.688 96.999 789.488 -27.5072L789.986 -26.3069C634.477 46.297 527.797 91.3121 433.283 124.308C366.473 147.663 305.423 164.684 247.182 176.213Z" fill="white"/>
<path d="M218.507 171.759C198.26 175.767 178.164 179.225 157.92 181.934C68.3452 193.951 -21.204 192.975 -124.171 179.329C-220.293 166.147 -332.782 141.139 -478.322 100.074L-478.02 98.9753C-332.48 140.04 -219.991 165.048 -123.918 177.98C-20.902 191.876 68.5978 192.602 157.923 180.634C334.023 156.944 507.422 84.1759 785.686 -50.652L786.134 -49.7017C539.683 69.9972 375.483 140.685 218.507 171.759Z" fill="white"/>
<path d="M188.876 169.052C182.377 170.338 176.128 171.575 169.829 172.562C81.4967 188.23 -7.7608 191.352 -111.037 182.703C-209.067 174.314 -324.416 154.548 -474.267 120.571L-473.965 119.472C-324.364 153.499 -209.015 173.265 -111.285 181.453C-8.25816 190.152 80.9993 187.029 169.332 171.362C252.666 156.684 339.321 129.92 442 86.9955C536.325 47.8028 641.72 -3.71137 781.332 -73.9479L781.78 -72.9975C642.167 -2.76099 536.773 48.7532 442.448 87.9459C347.471 127.787 266.364 153.713 188.876 169.052Z" fill="white"/>
<path d="M159.342 168.144C78.8549 184.077 -3.66129 189.761 -98.3531 186.426C-198.292 182.831 -316.199 168.507 -469.911 141.269L-469.859 140.219C-316.196 167.207 -198.289 181.532 -98.3505 185.127C4.98585 188.829 93.7016 181.658 180.792 162.34C355.223 123.655 523.055 35.8834 777.028 -96.9935L777.476 -96.0432C523.253 36.8832 355.421 124.655 180.74 163.389C173.791 165.024 166.591 166.709 159.342 168.144Z" fill="white"/>
<path d="M128.657 169.283C-22.3197 199.169 -194.771 196.681 -465.854 161.765L-465.752 160.966C-169.139 198.88 9.21473 198.382 170.554 159.171C334.343 119.216 483.673 37.7047 709.942 -85.5321C730.353 -96.5859 751.214 -107.989 773.025 -119.839L773.473 -118.889C751.912 -107.088 730.801 -95.6355 710.39 -84.5818C484.121 38.655 334.541 120.216 170.752 160.171C156.853 163.442 142.905 166.463 128.657 169.283Z" fill="white"/>
<path d="M96.1191 172.867C-45.109 200.823 -212.173 203.243 -461.746 182.512L-461.644 181.713C116.246 229.925 250.424 153.232 649.206 -74.8078C687.028 -96.3215 726.201 -118.882 768.725 -142.885L769.123 -142.185C726.599 -118.182 687.376 -95.871 649.604 -74.1074C423.022 55.4253 281.84 136.103 96.1191 172.867Z" fill="white"/>
<path d="M60.2751 179.443C-72.2043 205.667 -230.881 212.401 -457.689 203.009L-457.587 202.209C-175.264 213.86 1.56578 200.416 153.521 155.789C302.526 112.007 427.356 36.6442 600.218 -67.7081C648.949 -97.0961 704.385 -130.668 764.672 -165.98L765.07 -165.28C704.534 -129.919 649.348 -96.3957 600.616 -67.0077C427.755 37.3446 302.924 112.707 153.669 156.539C123.718 165.325 92.7701 173.01 60.2751 179.443Z" fill="white"/>
<path d="M21.5768 188.661C-102.404 213.204 -252.743 224.001 -453.633 223.506L-453.531 222.706C-179.132 223.197 1.05949 203.113 148.674 154.93C292.438 108.289 405.119 35.8508 561.181 -64.1371C619.273 -101.352 685.22 -143.499 760.519 -189.576L760.918 -188.875C685.418 -142.499 619.72 -100.402 561.629 -63.1867C405.567 36.8012 292.885 109.24 148.872 155.93C109.118 168.995 67.0697 179.656 21.5768 188.661Z" fill="white"/>
<path d="M-25.0244 202.562C-138.757 225.076 -274.859 238.25 -449.525 244.252L-449.674 243.503C-178.303 233.943 -0.147724 207.508 146.126 155.175C285.848 105.178 388.531 34.7187 531.095 -62.5972C595.597 -106.796 668.806 -156.874 756.268 -212.372L756.666 -211.671C669.204 -156.174 595.995 -106.095 531.493 -61.8967C388.979 35.6691 286.296 106.128 146.324 156.175C94.3658 174.513 37.9658 190.093 -25.0244 202.562Z" fill="white"/>
<path d="M-77.4287 219.949C-83.4277 221.137 -89.4268 222.324 -95.6759 223.561C-192.859 241.76 -307.323 255.327 -445.417 264.999L-445.565 264.249C-307.471 254.577 -193.007 241.01 -95.8243 222.811C-3.89058 205.652 75.1595 183.77 145.976 155.725C282.358 101.973 382.197 28.9593 508.261 -63.7916C576.973 -114.279 654.994 -171.544 751.967 -235.418L752.365 -234.717C655.392 -170.843 577.622 -113.628 508.66 -63.0912C382.346 29.7092 282.806 102.923 146.125 156.474C80.0598 182.28 6.80828 203.274 -77.4287 219.949Z" fill="white"/>
<path d="M-140.039 242.214C-227.275 259.482 -326.549 273.679 -441.36 285.496L-441.459 284.996C-176.749 257.533 5.02981 217.913 147.973 156.628C282.013 98.9237 374.557 25.796 492.026 -67.0718C563.198 -123.501 643.83 -187.257 747.914 -258.513L748.263 -258.063C644.179 -186.807 563.547 -123.05 492.325 -66.8713C375.106 25.947 282.313 99.1242 148.272 156.829C67.3973 191.8 -26.0566 219.651 -140.039 242.214Z" fill="white"/>
<path d="M186.393 234.94C36.0731 261.275 -154.269 276.029 -400.521 273.094L-400.489 271.742C438.203 281.899 631.276 85.8653 786.356 -71.7174C813.357 -99.0816 838.758 -124.818 866.4 -148.522L867.367 -147.614C839.725 -123.91 814.325 -98.1733 787.324 -70.8091C677.81 40.7983 548.731 171.461 186.393 234.94Z" fill="white"/>
<path d="M202.826 227.211C38.65 255.973 -161.758 267.102 -403.148 261.16L-403.116 259.807C-51.569 268.546 212.802 241.091 405.036 175.619C573.122 118.418 661.682 42.5461 747.164 -30.9004C787.458 -65.4435 825.628 -98.2673 870.204 -126.824L870.91 -125.87C826.38 -97.0517 788.426 -64.5352 748.132 -29.9921C662.388 43.5002 573.828 119.372 405.527 176.88C345.217 197.146 277.855 214.067 202.826 227.211Z" fill="white"/>
<path d="M218.517 219.882C52.773 248.919 -153.06 258.303 -405.301 248.873L-405.222 247.782C-71.3151 260.419 181.286 239.607 366.712 184.488C530.113 135.923 620.877 68.0175 708.825 2.49202C761.516 -36.6481 811.3 -73.9315 874.221 -105.433L874.666 -104.433C811.744 -72.9315 762.176 -35.9554 709.485 3.18472C621.276 68.756 530.25 136.707 366.895 185.534C321.584 199.131 272.11 210.493 218.517 219.882Z" fill="white"/>
<path d="M232.468 213.395C66.2008 242.524 -144.796 250.119 -407.978 236.678L-407.9 235.586C-88.4495 251.834 153.643 237.175 332.509 190.75C490.996 149.511 582.781 88.9721 671.658 30.2895C735.408 -11.8657 795.557 -51.5039 877.975 -83.996L878.419 -82.9961C796.001 -50.504 735.852 -10.8658 672.103 31.2894C583.226 89.972 491.179 150.557 332.692 191.795C301.256 199.997 268.022 207.167 232.468 213.395Z" fill="white"/>
<path d="M243.114 208.028C175.405 219.89 100.766 227.577 16.5849 231.547C-106.328 237.452 -246.065 234.988 -410.392 224.437L-410.314 223.345C-245.987 233.896 -106.295 236.099 16.6631 230.455C125.968 225.317 219.338 213.81 302 195.017C455.482 160.584 547.321 106.502 635.944 54.0609C706.289 12.6365 779.064 -30.2916 881.992 -62.6045L882.436 -61.6046C779.77 -29.3375 706.995 13.5906 636.65 55.015C547.72 107.24 455.881 161.322 302.183 196.063C283.021 200.498 263.505 204.455 243.114 208.028Z" fill="white"/>
<path d="M254.592 202.783C179.562 215.928 95.7607 223.604 -1.34894 226.066C-119.615 229.271 -254.353 224.584 -413.066 212.241L-412.988 211.149C-254.275 223.492 -119.583 227.918 -1.57794 224.759C104.081 221.877 194.156 213.102 274.185 197.734C422.786 169.275 509.849 123.305 601.819 74.5895C680.497 33.0524 761.867 -10.0341 885.487 -41.1222L885.671 -40.0765C762.05 -8.98844 680.896 33.7909 602.264 75.5894C510.032 124.351 423.231 170.275 274.107 198.826C267.925 200.448 261.127 201.638 254.592 202.783Z" fill="white"/>
<path d="M264.851 198.292C259.622 199.208 254.394 200.124 249.165 201.04C86.9756 227.298 -124.349 226.867 -415.436 200.261L-415.358 199.17C-124.271 225.776 86.7466 225.991 249.243 199.948C393.349 176.588 478.928 135.998 569.723 92.8766C655.78 51.9329 744.882 9.91683 889.594 -19.2078L889.778 -18.1621C745.066 10.9625 655.963 52.9787 570.168 93.8765C482.588 135.356 399.747 174.659 264.851 198.292Z" fill="white"/>
<path d="M274.156 194.506C258.993 197.162 243 199.694 226.132 201.841C69.9147 222.203 -134.809 217.921 -418.113 188.066L-417.989 187.236C-134.947 217.137 69.7773 221.419 225.994 201.057C365.604 182.796 449.871 147.016 539.137 109.013C631.665 69.63 727.192 28.9133 893.44 2.75197L893.578 3.53625C727.375 29.959 631.802 70.4143 539.536 109.751C460.746 142.955 386.046 174.903 274.156 194.506Z" fill="white"/>
<path d="M283.032 191.334C143.43 215.791 -56.384 219.541 -420.48 176.086L-420.356 175.256C182.919 247.404 334.462 189.599 510.063 122.999C608.107 85.8826 709.412 47.3871 897.197 24.189L897.334 24.9733C709.811 48.1256 608.506 86.6211 510.461 123.737C440.735 150.233 374.793 175.258 283.032 191.334Z" fill="white"/>
<path d="M290.691 188.915C259.059 194.456 224.537 198.887 185.42 201.699C40.9007 211.928 -152.498 200.003 -423.156 163.891L-423.032 163.061C-152.636 199.219 40.7633 211.144 185.283 200.914C316.195 191.452 397.13 164.339 482.633 135.618C580.842 102.515 692.063 65.2464 900.952 45.6261L901.089 46.4103C692.2 66.0307 581.241 103.254 483.032 136.356C422.677 156.361 364.936 175.907 290.691 188.915Z" fill="white"/>
<path d="M300.056 187.004C261.365 193.783 218.556 198.588 167.479 200.8C28.6381 206.532 -159.729 191.031 -425.831 151.695L-425.707 150.865C-159.866 190.247 28.5465 206.009 167.341 200.016C294.143 194.777 369.445 172.423 456.851 146.871C559.099 116.833 674.928 82.7984 904.446 67.1088L904.583 67.8931C675.02 83.3213 559.191 117.356 457.25 147.609C405.234 162.92 357.309 176.974 300.056 187.004Z" fill="white"/>
<path d="M908.648 89.5455C659.241 100.906 539.497 131.045 433.731 157.927C348.344 179.623 274.538 198.211 151.415 199.842C18.6067 201.553 -165.558 182.352 -428.197 139.715L-428.028 139.147C-165.65 181.829 18.5151 201.03 151.324 199.319C274.185 197.734 347.991 179.146 433.378 157.45C539.189 130.829 659.15 100.383 908.557 89.0227L908.648 89.5455Z" fill="white"/>
</g>
</g>
<defs>
<linearGradient id="paint0_linear_903:42" x1="13.7646" y1="29.322" x2="273.048" y2="131.926" gradientUnits="userSpaceOnUse">
<stop stop-color="#16BFFF"/>
<stop offset="1" stop-color="#0679FF"/>
</linearGradient>
<linearGradient id="paint1_linear_903:42" x1="396.539" y1="70.9749" x2="6.101" y2="59.8203" gradientUnits="userSpaceOnUse">
<stop stop-color="#F62C84"/>
<stop offset="0.232292" stop-color="#E1309C"/>
<stop offset="0.768362" stop-color="#AB38D9"/>
<stop offset="1" stop-color="#8A3EFF"/>
</linearGradient>
</defs>
</svg>
