<svg width="5" height="19" viewBox="0 0 5 19" fill="none" xmlns="http://www.w3.org/2000/svg">
<path d="M2.27617 3.75533C1.25186 3.75533 0.421484 2.92496 0.421484 1.90065C0.421484 0.876332 1.25186 0.0459597 2.27617 0.0459596C3.30049 0.0459595 4.13086 0.876331 4.13086 1.90065C4.13086 2.92496 3.30049 3.75533 2.27617 3.75533Z" fill="white"/>
<path d="M2.27813 11.1741C1.25381 11.1741 0.423438 10.3437 0.423438 9.31938C0.423437 8.29506 1.25381 7.46469 2.27812 7.46469C3.30244 7.46469 4.13281 8.29506 4.13281 9.31938C4.13281 10.3437 3.30244 11.1741 2.27813 11.1741Z" fill="white"/>
<path d="M2.27813 18.5928C1.25381 18.5928 0.423438 17.7624 0.423438 16.7381C0.423437 15.7138 1.25381 14.8834 2.27812 14.8834C3.30244 14.8834 4.13281 15.7138 4.13281 16.7381C4.13281 17.7624 3.30244 18.5928 2.27813 18.5928Z" fill="white"/>
</svg>
